<svg xmlns="http://www.w3.org/2000/svg" viewBox="271.008 67.184 158.926 141.436" width="128" height="128">
  <path fill="#F0AB46" d="M271.183 73.293c1.778-5.229 5.247-7.115 10.311-7.109 46.063.067 92.127.028 138.194.052 6.745.004 10.22 3.444 10.223 10.153.032 40.4.032 80.805-.004 121.205-.007 6.5-3.451 9.996-9.884 10a92084.895 92084.895 0 0 1-139.111 0c-6.282-.004-9.898-3.423-9.902-9.506-.014-41.471.049-82.943.165-124.793m103.163 44.502h-97.897v4.784c0 24.332-.004 48.664.004 72.996.004 6.087.49 6.58 6.51 6.583 44.992.007 89.981.007 134.974 0 6.027 0 6.538-.514 6.538-6.559.011-24.332.011-48.664-.011-72.996 0-1.47-.158-2.943-.263-4.806h-49.854M419.24 92.77h4.676c.291-.875.462-1.155.466-1.435.042-4.127.077-8.26.081-12.386.007-7.053-.221-7.277-7.193-7.277H283.721c-1.221 0-2.681-.396-3.615.126-1.4.791-3.385 2.173-3.462 3.413-.367 5.726-.165 11.49-.165 17.559h142.765m-47.656 5.442h-94.833v13.779h147.409V98.212h-52.577z"/>
  <path fill="#FFFEFC" d="M374.805 117.796h49.392c.105 1.862.263 3.332.263 4.806.014 24.332.018 48.664.011 72.996-.004 6.045-.514 6.559-6.538 6.559-44.992.007-89.981.007-134.974 0-6.02 0-6.51-.497-6.51-6.583-.011-24.332-.004-48.664-.004-72.996v-4.784h98.361m11.133 47.698-2.058-19.978c-.112.035.333-.063.738-.242 1.859-.837 5.292-1.708 5.281-2.548-.021-3.479-3.185-3.042-5.526-2.859-3.329.256-5.544-.879-7.85-3.419a34.958 34.958 0 0 0-58.905 10.931c-1.197 3.083-1.911 6.356-2.943 9.863-3.241 0-6.471-.291-9.604.133-1.379.185-2.558 1.82-3.829 2.8 1.232.837 2.401 2.261 3.706 2.401 3.276.35 6.619.116 9.996.116l1.516 7.784c-.808.301-1.477.367-1.88.731-1.099.987-2.083 2.1-3.111 3.16 1.323.731 2.653 2.083 3.966 2.065 2.818-.038 4.323 1.131 5.883 3.363 10.546 15.099 30.321 20.625 45.252 11.582 6.506-3.941 12.75-5.075 19.828-4.725 1.981.098 4.064.367 5.936-.098 1.589-.396 2.95-1.732 4.417-2.653-1.533-.896-3.01-2.415-4.609-2.562-4.046-.371-8.148-.123-12.376-.123 3.224-9.737 3.224-9.734 12.222-9.761 1.376-.004 2.926.304 4.071-.224 1.134-.521 1.862-1.929 2.768-2.943-1.011-.704-1.97-1.904-3.045-2.016-3.027-.326-6.101-.206-9.849-.77z"/>
  <path fill="#FFFFFE" d="M418.799 92.767H276.486c0-6.073-.203-11.833.165-17.559.081-1.236 2.061-2.622 3.462-3.413.935-.525 2.391-.126 3.615-.13h133.549c6.972 0 7.196.224 7.193 7.277-.004 4.13-.038 8.26-.081 12.386-.004.284-.175.56-.466 1.435h-5.124M313.155 77.955c-1.915.854-4.168 1.351-5.593 2.716-.63.605-.042 3.923.794 4.316 1.754.829 4.739 1.456 5.961.521 2.804-2.142 2.285-5.037-1.162-7.553m-10.395 5.59c.63-2.909-.571-5.072-3.349-5.509-1.446-.228-3.945.7-4.508 1.838-.711 1.421-.612 4.193.364 5.313 2.488 2.849 5.142 1.778 7.494-1.638m-21.588-3.332c.588 1.96.78 4.224 1.946 5.747.553.721 3.469.605 4.399-.189 1.117-.959 1.873-3.119 1.708-4.641-.378-3.482-3.853-4.064-8.057-.913z"/>
  <path fill="#FEFCF8" d="M372.047 98.213h52.118v13.779h-147.41V98.213h95.294m-23.425 10.076c16.517 0 33.033.032 49.553-.038 2.24-.011 5.754 1.043 5.803-2.562.052-3.997-3.664-2.793-5.995-2.8-36.858-.063-73.717-.045-110.572-.045-1.071 0-2.314-.319-3.171.116-1.165.595-2.034 1.771-3.031 2.699 1.06.868 2.002 2.023 3.216 2.516 1.053.427 2.411.116 3.633.116l60.564.004m61.068-2.359c.571 2.786 2.292 4.613 5.058 3.706 1.498-.49 3.535-2.699 3.405-3.93-.168-1.614-1.981-3.843-3.549-4.34-2.684-.847-4.532.927-4.91 4.56z"/>
  <path fill="#F0AC49" d="M386.281 165.746c3.402.308 6.475.189 9.499.518 1.075.116 2.03 1.313 3.045 2.016-.907 1.015-1.635 2.422-2.768 2.943-1.148.532-2.699.221-4.071.224-8.998.028-8.998.025-12.222 9.761 4.228 0 8.333-.248 12.376.123 1.6.147 3.077 1.666 4.609 2.562-1.463.924-2.821 2.258-4.417 2.656-1.873.466-3.952.193-5.936.098-7.073-.35-13.321.784-19.828 4.725-14.931 9.041-34.706 3.517-45.252-11.582-1.558-2.233-3.066-3.402-5.883-3.363-1.313.018-2.646-1.333-3.966-2.065 1.029-1.064 2.012-2.17 3.111-3.16.403-.36 1.075-.43 1.88-.728l-1.516-7.784c-3.381 0-6.72.235-9.996-.116-1.305-.137-2.474-1.561-3.706-2.401 1.27-.977 2.45-2.611 3.829-2.8 3.136-.423 6.363-.133 9.604-.133 1.029-3.507 1.746-6.776 2.943-9.863a34.958 34.958 0 0 1 58.9-10.933c2.31 2.541 4.526 3.675 7.85 3.419 2.345-.182 5.505-.619 5.526 2.859.007.84-3.423 1.712-5.281 2.548-.406.185-.851.277-.738.242.7 6.787 1.379 13.384 2.405 20.233m-34.149-3.927c-1.904.326-3.801.91-5.705.935-8.498.102-17 .045-25.511.045.378 8.425.759 8.817 7.903 8.817 4.896 0 9.81-.224 14.683.116 1.922.133 5.302 1.435 5.351 2.356.2 3.559-3.052 2.454-5.089 2.506-5.75.137-11.505.045-17.437.045 3.619 10.423 23.418 18.302 36.705 10.441-1.666-4.274-1.134-5.187 3.143-5.383 6.31-.287 9.534-3.119 11.021-9.877-1.397-.063-2.877.203-4.078-.263-1.603-.619-2.989-1.802-4.466-2.744 1.414-.854 2.768-2.328 4.245-2.45 7.626-.633 8.309-1.264 7.217-9.005-.36-2.558-1.117-5.068-1.757-7.581-.833-3.255-2.758-4.606-6.317-4.508-9.023.238-18.056.137-27.087.038-2.223-.028-5.509 1.071-5.596-2.622-.018-.756 3.469-2.219 5.376-2.285 7.644-.266 15.299-.095 22.953-.13 1.123-.004 2.247-.256 3.612-.416-6.353-8.624-19.782-11.844-31.15-7.798-10.924 3.889-19.481 15.148-18.89 25.316h4.931c7.193.004 14.385-.067 21.574.045 2.377.038 5.274-.13 4.368 4.406z"/>
  <path fill="#F0AE4E" d="M313.46 78.096c3.143 2.38 3.661 5.274.857 7.417-1.221.935-4.207.308-5.961-.521-.837-.396-1.424-3.713-.794-4.316 1.428-1.361 3.678-1.866 5.897-2.579zm-10.836 5.761c-2.216 3.104-4.869 4.176-7.354 1.327-.977-1.117-1.071-3.892-.364-5.313.564-1.134 3.066-2.061 4.508-1.838 2.779.438 3.979 2.6 3.21 5.817z"/>
  <path fill="#F0AC49" d="M281.355 79.922c4.021-2.856 7.5-2.275 7.878 1.204.168 1.522-.588 3.682-1.712 4.641-.935.798-3.85.913-4.399.189-1.165-1.519-1.355-3.787-1.768-6.038z"/>
  <path fill="#F1B052" d="m348.162 108.287-60.102-.004c-1.221 0-2.583.315-3.633-.116-1.211-.493-2.156-1.645-3.216-2.516.994-.927 1.866-2.103 3.031-2.699.854-.434 2.1-.116 3.171-.116 36.858 0 73.717-.021 110.572.045 2.328.004 6.048-1.201 5.995 2.8-.049 3.605-3.563 2.555-5.803 2.562-16.517.074-33.033.038-50.008.038z"/>
  <path fill="#F0AD4B" d="M409.685 105.567c.385-3.272 2.233-5.051 4.918-4.204 1.572.493 3.381 2.727 3.549 4.34.13 1.232-1.908 3.441-3.405 3.93-2.768.907-4.487-.921-5.061-4.067z"/>
  <path fill="#FEFBF7" d="M352.345 161.497c.693-4.211-2.208-4.046-4.585-4.085-7.193-.116-14.385-.045-21.574-.045h-4.931c-.592-10.167 7.966-21.427 18.89-25.316 11.368-4.046 24.801-.826 31.15 7.798-1.365.168-2.488.413-3.612.416-7.654.032-15.309-.137-22.953.13-1.908.067-5.393 1.526-5.376 2.282.084 3.692 3.374 2.594 5.596 2.622 9.027.102 18.06.203 27.087-.038 3.559-.098 5.488 1.256 6.317 4.508.64 2.513 1.397 5.019 1.757 7.581 1.092 7.742.41 8.372-7.217 9.005-1.47.123-2.832 1.6-4.245 2.45 1.48.942 2.863 2.124 4.466 2.744 1.201.466 2.681.2 4.078.263-1.484 6.758-4.711 9.59-11.021 9.877-4.277.193-4.806 1.106-3.143 5.383-13.29 7.857-33.085-.018-36.705-10.441 5.933 0 11.687.091 17.437-.045 2.04-.045 5.292 1.06 5.089-2.506-.049-.921-3.433-2.223-5.351-2.356-4.875-.336-9.786-.112-14.683-.116-7.143 0-7.525-.396-7.903-8.817 8.515 0 17.017.06 25.511-.045 1.908-.025 3.804-.605 5.918-1.256z"/>
</svg>
